<svg width="36" height="36" viewBox="0 0 36 36" fill="none" xmlns="http://www.w3.org/2000/svg">
<path d="M6 6.255V25.5C5.99971 27.4042 6.7237 29.2371 8.02512 30.6271C9.32654 32.0171 11.1079 32.8601 13.008 32.985L13.5 33H26.742C26.4318 33.8773 25.8574 34.6368 25.0977 35.174C24.338 35.7113 23.4305 35.9999 22.5 36H12C9.61305 36 7.32387 35.0518 5.63604 33.364C3.94821 31.6761 3 29.3869 3 27V10.5C2.99951 9.56902 3.28778 8.66081 3.82508 7.90053C4.36239 7.14025 5.12227 6.56533 6 6.255ZM28.5 0C29.6935 0 30.8381 0.474106 31.682 1.31802C32.5259 2.16193 33 3.30653 33 4.5V25.5C33 26.6935 32.5259 27.8381 31.682 28.682C30.8381 29.5259 29.6935 30 28.5 30H13.5C12.3065 30 11.1619 29.5259 10.318 28.682C9.47411 27.8381 9 26.6935 9 25.5V4.5C9 3.30653 9.47411 2.16193 10.318 1.31802C11.1619 0.474106 12.3065 0 13.5 0H28.5Z" fill="#325AA7"/>
</svg>
